<?xml version="1.0" encoding="utf-8"?>
<!-- Generator: Adobe Illustrator 25.4.1, SVG Export Plug-In . SVG Version: 6.00 Build 0)  -->
<svg version="1.1" id="Layer_1" xmlns="http://www.w3.org/2000/svg" xmlns:xlink="http://www.w3.org/1999/xlink" x="0px" y="0px"
	 viewBox="0 0 423.6 84" style="enable-background:new 0 0 423.6 84;" xml:space="preserve">
<style type="text/css">
	.st0{fill:#FFFFFF;}
	.st1{fill:none;stroke:#000000;stroke-miterlimit:10;}
	.st2{fill:#FF0000;}
</style>
<g>
	<path d="M423.6,24L423.6,24c0-4.1-1-7.5-2.3-10.3v0c0-0.1-0.1-0.2-0.1-0.2c-0.4-0.9-0.9-1.7-1.4-2.4c0-0.1-0.1-0.1-0.1-0.2
		c-0.1-0.2-0.3-0.4-0.4-0.6c-3.6-5.3-8-7.2-8-7.2l-0.2,0.3c-0.1-0.1-0.2-0.2-0.4-0.2c-2.8-1.7-6.1-2.7-9.6-2.7H370
		c-44.7-0.9-109.7,0-109.7,0h-12.4H0.7v63c0,0.1-0.7,1.3-0.7,1.3l4.2,4.6h337.5l20,13v-13h42.9c10.4,0,18.9-8.9,18.9-19.3V24.7
		C423.6,24.5,423.6,24.2,423.6,24"/>
	<path class="st0" d="M247.8,64h90.4l19.5,13.1V64h43.4c10.4,0,18.9-8.9,18.9-19.3V19.4c0-10.4-8.6-19-18.9-19H247.8"/>
	<path class="st1" d="M247.8,64h90.4l19.5,13.1V64h43.4c10.4,0,18.9-8.9,18.9-19.3V19.4c0-10.4-8.6-19-18.9-19H247.8"/>
	<polyline class="st2" points="256.8,0.4 0.7,0.4 0.7,64 256.8,64 	"/>
	<polyline class="st1" points="256.8,0.4 0.7,0.4 0.7,64 256.8,64 	"/>
	<polygon class="st0" points="17.3,48 38.2,48 38.2,43.8 22.6,43.8 22.6,34.8 33.3,34.8 33.3,30.5 22.6,30.5 22.6,25.2 22.3,22.7 
		38,22.7 38,18.4 17,18.4 17.3,21 	"/>
	<polygon class="st0" points="44.9,48 52.9,36.1 60.7,48 65.5,48 65.5,47 56.3,33.1 65.3,19.4 65.3,18.4 61,18.4 53.5,29.8 
		46.2,18.4 41.4,18.4 41.4,19.4 50,32.6 40.4,47 40.4,48 	"/>
	<path class="st0" d="M118.1,21v27h5.3V27.1L140.2,48h4.6V18.1h-5.3v20.6L123,18.1 M68.3,48h5.3V39h5.9c5.8,0,11.1-3.3,11.1-10.6
		c0-6.6-4.4-10.3-10.5-10.3H68l0.3,3C68.3,21.1,68.3,48,68.3,48z M73.7,34.7v-9.4l-0.3-2.9H79c3.9,0,6.5,1.6,6.5,6.1
		c0,4.2-2.6,6.2-6.5,6.2H73.7z M108.7,41.4l2.7,6.6h4.8v-1l-11.8-29h-5L87.4,47v1h4.8l2.8-6.6L108.7,41.4L108.7,41.4z M96.7,37.1
		l5.3-13.9l5.1,13.9H96.7z M123,18.1h-5.3l0.3,2.9 M172.4,48h5.2V18h-5.2V48z M220.8,48V27.1L237.6,48h4.6V18.1h-5.3v20.6
		l-16.5-20.6h-5.3l0.3,2.9v27C215.4,48,220.8,48,220.8,48z M158.6,17.4c-6.3,0-10.9,3.1-10.9,8.4c0,5.5,6.1,7.7,9.6,9.1
		c3.4,1.3,6.2,2.3,6.2,4.6c0,2.7-2.3,4.4-5.7,4.4c-2.9,0-5.8-1.3-7.9-2.8h-1.6l-0.5,3.8c2.5,2,6.5,3.4,10.1,3.4c6.2,0,11-3.5,11-9
		c0-5-5-6.9-8.4-8.3c-3.8-1.5-7.5-2.7-7.5-5.5c0-2.3,2.2-3.6,5.6-3.6c2.2,0,4.8,0.8,6.1,1.8h1.7l0.5-4
		C165.2,18.7,162.2,17.4,158.6,17.4"/>
	<path class="st0" d="M196.6,17.6c-9,0-15.9,6.7-15.9,15.4c0,8.7,6.8,15.4,15.9,15.4c9,0,15.9-6.7,15.9-15.4
		C212.4,24.2,205.5,17.6,196.6,17.6 M196.6,44.3c-6,0-10.7-4.8-10.7-11.3c0-6.6,4.4-10.9,10.5-10.9c6,0,10.8,4.4,10.8,10.9
		C207.2,40,202.2,44.3,196.6,44.3"/>
	<polygon points="208.4,18 198.5,28 204.7,28 214.7,18 	"/>
	<path d="M395.4,30.3c1.9,0,3.2,0.4,3.8,0.8v-1c0-1.3-0.5-2.5-2.3-2.5c-1.6,0-2.1,1.1-2.1,2h-6.5c0.1-4.7,2.9-7.5,8.5-7.5
		c7.2,0,9.2,3.9,9.2,9.1v14.4h-5.7v-1.3c-1.1,1-2.6,1.5-4.8,1.5c-4.6,0-8.1-3-8.1-7.9C387.5,33.4,390.6,30.3,395.4,30.3 M396.7,40.4
		c1.5,0,2.6-1.1,2.6-2.6c0-1.6-1.2-2.6-2.7-2.6c-1.5,0-2.6,1.1-2.6,2.6C394,39.3,395.2,40.4,396.7,40.4"/>
	<path d="M276.3,52.8h-6.9V22.3h6.5v1.5c1.1-0.8,3-1.8,6.4-1.8c7,0,11.4,4.9,11.4,11.8c0,6.6-4.4,11.9-11.8,11.9
		c-2.4,0-4.4-0.7-5.6-1.5L276.3,52.8L276.3,52.8z M281.5,39.5c3.4,0,5.3-2.4,5.3-5.7c0-3.3-2.1-5.8-5.4-5.8c-3.4,0-5.4,2.4-5.4,5.8
		C276.1,37.1,278.2,39.5,281.5,39.5"/>
	<path d="M307.9,21.9c7.5,0,12.1,5.2,12.1,11.8c0,6.7-4.8,11.9-12.1,11.9c-7.4,0-12.1-5.2-12.1-11.8
		C295.9,27.2,300.9,21.9,307.9,21.9 M308,39.5c3.3,0,5.2-2.4,5.2-5.6c0-3.2-2.1-5.7-5.2-5.7c-3.3,0-5.2,2.4-5.2,5.7
		C302.8,37.1,304.9,39.5,308,39.5"/>
	<rect x="323" y="13.9" width="6.9" height="31.4"/>
	<rect x="333.5" y="22.3" width="6.9" height="23"/>
	<path d="M352.1,22.3h3v5.8h-3v9.1c0,1.5,0.6,2.1,1.9,2.1h1.2v5.8c0,0-1.1,0.4-3.5,0.4c-4.4,0-6.5-2.3-6.5-6.2V28.1h-2v-5.8h2v-3.6
		h6.9L352.1,22.3L352.1,22.3z"/>
	<path d="M357.9,17.5c0-2.2,1.7-3.9,3.9-3.9c2.2,0,4,1.8,4,3.9c0,2.1-1.8,3.9-4,3.9C359.6,21.4,357.9,19.7,357.9,17.5 M365.3,45.3
		h-6.9v-23h6.9V45.3z"/>
	<path d="M384.1,38l3.8,4.9c-1.4,1.3-4,2.8-7.7,2.8c-7.4,0-12-5.2-12-11.8c0-6.7,5-11.9,11.9-11.9c3.9,0,6.4,1.5,7.8,2.8l-3.8,4.9
		c-0.7-0.6-2-1.5-3.9-1.5c-3.3,0-5.1,2.4-5.1,5.7c0,3.6,2.4,5.6,5.2,5.6C382.2,39.5,383.4,38.6,384.1,38"/>
	<polygon class="st2" points="333.5,13.9 333.5,20.1 340.4,13.9 	"/>
</g>
</svg>
